Coordinates
version=1
nRows=27
nColumns=38
inDegrees=no

Units are S.I. units (second, meters, Newtons, ...)
If the header above contains a line with 'inDegrees', this indicates whether rotational values are in degrees (yes) or radians (no).

endheader
time	pelvis_tilt	pelvis_list	pelvis_rotation	pelvis_tx	pelvis_ty	pelvis_tz	hip_flexion_r	hip_adduction_r	hip_rotation_r	knee_angle_r	ankle_angle_r	subtalar_angle_r	mtp_angle_r	hip_flexion_l	hip_adduction_l	hip_rotation_l	knee_angle_l	ankle_angle_l	subtalar_angle_l	mtp_angle_l	lumbar_extension	lumbar_bending	lumbar_rotation	arm_flex_r	arm_add_r	arm_rot_r	elbow_flex_r	pro_sup_r	wrist_flex_r	wrist_dev_r	arm_flex_l	arm_add_l	arm_rot_l	elbow_flex_l	pro_sup_l	wrist_flex_l	wrist_dev_l
1.925	-0.0628797	0.132918	0.0395228	0.901252	0.944663	-0.636686	0.619673	-0.199727	-0.0835496	-2.35105	0.33828	0.1	8.4727e-06	0.494959	0.125589	-0.284319	-0.951724	0.640141	0.1	-8.60161e-06	-0.331151	-0.187347	-0.147117	-0.473309	-0.307634	-0.076537	1.75757	2.14393	-0.0278763	-0.0186735	-0.0226768	-0.517269	0.195046	1.99417	1.81729	0.0197158	-0.0137003
1.93333	-0.0694354	0.125444	0.0464568	0.898866	0.9436	-0.637367	0.697959	-0.189337	-0.0730084	-2.34035	0.330981	0.1	8.4727e-06	0.456733	0.113656	-0.284027	-0.95341	0.676325	0.1	-8.60161e-06	-0.327999	-0.172513	-0.176199	-0.496292	-0.309626	-0.0748673	1.74573	2.13225	-0.0278763	-0.0186735	0.00296427	-0.511058	0.187405	2.00891	1.82087	0.0197158	-0.0137003
1.94167	-0.0764736	0.113326	0.0540621	0.897308	0.943477	-0.638184	0.770379	-0.176428	-0.0688884	-2.31493	0.323724	0.1	8.4727e-06	0.414019	0.0964768	-0.283427	-0.945702	0.703812	0.1	-8.60161e-06	-0.321222	-0.15202	-0.203526	-0.524734	-0.313586	-0.0728329	1.74619	2.12001	-0.0278763	-0.0186735	0.0214429	-0.501984	0.176598	2.03056	1.82345	0.0197158	-0.0137003
1.95	-0.0836023	0.0970094	0.0621414	0.896627	0.944326	-0.639115	0.835427	-0.162045	-0.0717913	-2.27567	0.317691	0.1	8.4727e-06	0.366889	0.0745981	-0.28309	-0.928907	0.720297	0.1	-8.60161e-06	-0.311142	-0.126604	-0.228846	-0.558336	-0.318582	-0.0718145	1.7569	2.11039	-0.0278763	-0.0186735	0.0334059	-0.490283	0.163972	2.05753	1.82522	0.0197158	-0.0137003
1.95833	-0.0904099	0.0772337	0.0702791	0.896839	0.946151	-0.640132	0.891963	-0.147107	-0.0815677	-2.22372	0.313764	0.1	8.4727e-06	0.315299	0.048974	-0.283918	-0.903066	0.723408	0.1	-8.60161e-06	-0.298277	-0.0973356	-0.251846	-0.596483	-0.323649	-0.0730729	1.77533	2.10549	-0.0278763	-0.0186735	0.0397849	-0.476288	0.151026	2.08799	1.82627	0.0197158	-0.0137003
1.96667	-0.096539	0.0549367	0.0778724	0.897926	0.948918	-0.641208	0.939287	-0.132267	-0.0973719	-2.16032	0.312432	0.1	8.4727e-06	0.259248	0.0208619	-0.28712	-0.868117	0.710964	0.1	-8.60161e-06	-0.283245	-0.0655101	-0.272166	-0.63832	-0.327924	-0.0775429	1.79876	2.10592	-0.0278763	-0.0186735	0.041598	-0.460396	0.139175	2.12016	1.82659	0.0197158	-0.0137003
1.975	-0.101783	0.0311785	0.0841979	0.899823	0.952545	-0.642306	0.977175	-0.117845	-0.117803	-2.08668	0.313779	0.1	8.4727e-06	0.198967	-0.00826819	-0.294011	-0.824131	0.681263	0.1	-8.60161e-06	-0.266681	-0.0325343	-0.289455	-0.682814	-0.330744	-0.0857111	1.82469	2.1108	-0.0278763	-0.0186735	0.03978	-0.443048	0.129543	2.15251	1.82607	0.0197158	-0.0137003
1.98333	-0.106148	0.00708382	0.0885179	0.902434	0.956892	-0.643381	1.00587	-0.103854	-0.141105	-2.00386	0.317541	0.1	8.4727e-06	0.135095	-0.0368172	-0.305678	-0.771578	0.633417	0.1	-8.60161e-06	-0.24914	0.000176843	-0.303448	-0.728815	-0.331696	-0.097598	1.851	2.11825	-0.0278763	-0.0186735	0.0350715	-0.424714	0.122826	2.18393	1.82463	0.0197158	-0.0137003
1.99167	-0.10986	-0.0162054	0.0902057	0.905636	0.961776	-0.644379	1.02601	-0.0901288	-0.16542	-1.91272	0.323253	0.1	8.4727e-06	0.0687728	-0.0631559	-0.322655	-0.711565	0.567674	0.1	-8.60161e-06	-0.23104	0.0312782	-0.314055	-0.775112	-0.330619	-0.112831	1.87617	2.12607	-0.0278763	-0.0186735	0.0279802	-0.405887	0.119247	2.21371	1.82228	0.0197158	-0.0137003
2	-0.113325	-0.0375736	0.0888624	0.909277	0.966986	-0.645241	1.03851	-0.076496	-0.189033	-1.8139	0.330423	0.1	8.4727e-06	0.0016141	-0.0857404	-0.344668	-0.645987	0.48567	0.1	-8.60161e-06	-0.212656	0.0595491	-0.321413	-0.820501	-0.327576	-0.130777	1.89922	2.13236	-0.0278763	-0.0186735	0.0188055	-0.387062	0.118599	2.2415	1.81925	0.0197158	-0.0137003
2.00833	-0.117027	-0.0559977	0.0843964	0.913173	0.9723	-0.645912	1.04439	-0.0629431	-0.210601	-1.70793	0.338672	0.1	8.4727e-06	-0.0644241	-0.103224	-0.370486	-0.577547	0.390683	0.1	-8.60161e-06	-0.194129	0.0839244	-0.325902	-0.863855	-0.322796	-0.15068	1.91969	2.13599	-0.0278763	-0.0186735	0.00770466	-0.368718	0.120363	2.26725	1.81589	0.0197158	-0.0137003
2.01667	-0.121418	-0.0705618	0.077044	0.917138	0.977492	-0.646361	1.04465	-0.0497098	-0.229347	-1.59534	0.347829	0.1	8.4727e-06	-0.127258	-0.114608	-0.397967	-0.50964	0.287733	0.1	-8.60161e-06	-0.175531	0.103563	-0.328083	-0.904183	-0.316609	-0.171778	1.9375	2.13677	-0.0278763	-0.0186735	-0.00522183	-0.351295	0.123864	2.29099	1.81268	0.0197158	-0.0137003
2.025	-0.126813	-0.0805695	0.0673365	0.921001	0.982352	-0.646591	1.04015	-0.0372789	-0.245158	-1.47684	0.357912	0.1	8.4727e-06	-0.184912	-0.119358	-0.42431	-0.446136	0.18347	0.1	-8.60161e-06	-0.15693	0.117894	-0.328606	-0.940663	-0.309384	-0.19337	1.95281	2.1353	-0.0278763	-0.0186735	-0.0198513	-0.335167	0.128418	2.31279	1.81009	0.0197158	-0.0137003
2.03333	-0.133312	-0.0856398	0.0560145	0.92462	0.986705	-0.646649	1.0316	-0.0262593	-0.258581	-1.35353	0.369012	0.1	8.4727e-06	-0.235734	-0.117498	-0.446489	-0.391059	0.0855767	0.1	-8.60161e-06	-0.138472	0.126683	-0.328088	-0.972644	-0.301477	-0.214831	1.96588	2.13269	-0.0278763	-0.0186735	-0.035982	-0.320628	0.133448	2.33262	1.80852	0.0197158	-0.0137003
2.04167	-0.14076	-0.0857794	0.0439116	0.927891	0.990434	-0.646608	1.01954	-0.0172353	-0.270705	-1.22701	0.381152	0.1	8.4727e-06	-0.278531	-0.109613	-0.461727	-0.348231	0.00169805	0.1	-8.60161e-06	-0.120437	0.130075	-0.327004	-0.999613	-0.293213	-0.2356	1.97693	2.13017	-0.0278763	-0.0186735	-0.0533084	-0.307879	0.138545	2.3503	1.80814	0.0197158	-0.0137003
2.05	-0.148759	-0.081408	0.0318252	0.930752	0.99349	-0.646554	1.00443	-0.010602	-0.282916	-1.09954	0.394124	0.1	8.4727e-06	-0.312617	-0.0967981	-0.468011	-0.32095	-0.0618989	0.1	-8.60161e-06	-0.103271	0.128603	-0.325613	-1.02116	-0.284888	-0.25515	1.9861	2.1287	-0.0278763	-0.0186735	-0.0714325	-0.297013	0.14347	2.36551	1.80895	0.0197158	-0.0137003
2.05833	-0.156729	-0.0733057	0.0203982	0.933181	0.995879	-0.646562	0.986682	-0.00643199	-0.296572	-0.973965	0.407346	0.1	8.4727e-06	-0.33778	-0.0805505	-0.464523	-0.311756	-0.101595	0.1	-8.60161e-06	-0.0875712	0.123167	-0.323921	-1.03695	-0.276784	-0.272973	1.99341	2.12874	-0.0278763	-0.0186735	-0.0899009	-0.28801	0.148116	2.37781	1.81075	0.0197158	-0.0137003
2.06667	-0.164	-0.0625762	0.0100483	0.935189	0.99764	-0.64668	0.966713	-0.00444998	-0.312707	-0.853585	0.419885	0.1	8.4727e-06	-0.354219	-0.0625802	-0.451757	-0.322242	-0.117189	0.1	-8.60161e-06	-0.0740572	0.114935	-0.321697	-1.0467	-0.269201	-0.288587	1.99877	2.13015	-0.0278763	-0.0186735	-0.108258	-0.280733	0.152454	2.38672	1.81317	0.0197158	-0.0137003
2.075	-0.169879	-0.0505176	0.000940814	0.936796	0.998825	-0.646928	0.944931	-0.00408722	-0.331823	-0.741909	0.430594	0.1	8.4727e-06	-0.362464	-0.0446216	-0.431312	-0.352946	-0.111872	0.1	-8.60161e-06	-0.063494	0.105248	-0.318532	-1.05023	-0.262471	-0.30158	2.0021	2.13229	-0.0278763	-0.0186735	-0.126098	-0.274946	0.156479	2.39179	1.81576	0.0197158	-0.0137003
2.08333	-0.173736	-0.0384899	-0.00698364	0.938024	0.999504	-0.647281	0.921702	-0.00455907	-0.353722	-0.642278	0.438308	0.1	8.4727e-06	-0.363308	-0.0282843	-0.405616	-0.403355	-0.0914188	0.1	-8.60161e-06	-0.0566124	0.0954976	-0.313926	-1.04747	-0.256959	-0.311663	2.00336	2.13428	-0.0278763	-0.0186735	-0.143108	-0.270337	0.160163	2.39272	1.81801	0.0197158	-0.0137003
2.09167	-0.175076	-0.0277796	-0.0139437	0.938894	0.999745	-0.647691	0.89731	-0.0049987	-0.377523	-0.557495	0.44205	0.1	8.4727e-06	-0.357731	-0.0149102	-0.377358	-0.471983	-0.0628121	0.1	-8.60161e-06	-0.0540165	0.0869999	-0.30738	-1.03853	-0.253052	-0.31873	2.00263	2.13525	-0.0278763	-0.0186735	-0.159097	-0.266563	0.163446	2.38935	1.8194	0.0197158	-0.0137003
2.1	-0.173599	-0.019476	-0.0202465	0.939416	0.999597	-0.648093	0.871941	-0.00456546	-0.40174	-0.489527	0.44114	0.1	8.4727e-06	-0.346817	-0.005515	-0.349144	-0.55655	-0.0327622	0.1	-8.60161e-06	-0.0560938	0.0808588	-0.298473	-1.02372	-0.251116	-0.322872	2.00016	2.13464	-0.0278763	-0.0186735	-0.174003	-0.263305	0.166236	2.38173	1.81944	0.0197158	-0.0137003
2.10833	-0.169245	-0.014368	-0.0262294	0.939592	0.999084	-0.64842	0.845723	-0.00252683	-0.424449	-0.439345	0.435237	0.1	8.4727e-06	-0.331667	-0.000785797	-0.323318	-0.654245	-0.00650013	0.1	-8.60161e-06	-0.062946	0.0778572	-0.286898	-1.00354	-0.251474	-0.324362	1.99631	2.13235	-0.0278763	-0.0186735	-0.18788	-0.260306	0.168432	2.3701	1.81764	0.0197158	-0.0137003
2.11667	-0.162191	-0.0128786	-0.0322194	0.93942	0.9982	-0.648617	0.818818	0.00167691	-0.443525	-0.406992	0.424425	0.1	8.4727e-06	-0.313294	-0.00108613	-0.301789	-0.76198	0.0128961	0.1	-8.60161e-06	-0.0743587	0.0783768	-0.272474	-0.978657	-0.254368	-0.323571	1.9915	2.12879	-0.0278763	-0.0186735	-0.200866	-0.257409	0.169938	2.35479	1.81362	0.0197158	-0.0137003
2.125	-0.15284	-0.0150408	-0.0385067	0.938904	0.996913	-0.648647	0.791537	0.00836317	-0.457006	-0.391838	0.409369	0.1	8.4727e-06	-0.292521	-0.00644793	-0.285856	-0.876634	0.0245994	0.1	-8.60161e-06	-0.0898155	0.082366	-0.25515	-0.949731	-0.25995	-0.320863	1.98609	2.1247	-0.0278763	-0.0186735	-0.213131	-0.254567	0.170695	2.33616	1.80712	0.0197158	-0.0137003
2.13333	-0.14177	-0.0205278	-0.0453179	0.938055	0.995166	-0.648497	0.764435	0.017542	-0.463525	-0.392921	0.391552	0.1	8.4727e-06	-0.269878	-0.0165628	-0.27604	-0.995256	0.0296423	0.1	-8.60161e-06	-0.108555	0.0893756	-0.235003	-0.917341	-0.268278	-0.316474	1.98027	2.12094	-0.0278763	-0.0186735	-0.224816	-0.251821	0.170691	2.31446	1.79804	0.0197158	-0.0137003
2.14167	-0.12969	-0.0287331	-0.0527924	0.936885	0.992897	-0.648175	0.738322	0.0289302	-0.46252	-0.409198	0.373438	0.1	8.4727e-06	-0.245516	-0.0308264	-0.272071	-1.11524	0.0302797	0.1	-8.60161e-06	-0.129655	0.0986608	-0.21224	-0.881842	-0.27932	-0.310415	1.97397	2.11824	-0.0278763	-0.0186735	-0.235978	-0.249284	0.169983	2.28982	1.78644	0.0197158	-0.0137003
